<svg id="Layer_1" data-name="Layer 1" xmlns="http://www.w3.org/2000/svg" viewBox="0 0 20 20"><defs><style>.cls-1{fill:#fff;}</style></defs><title>Untitled-1</title><path class="cls-1" d="M19,10.5v-1H16.84a11.86,11.86,0,0,0-1.47-5.4L17.45,2l-0.71-.71L14.83,3.23A6,6,0,0,0,10,.48,6,6,0,0,0,5.2,3.26l-2-2L2.54,2,4.65,4.13A11.87,11.87,0,0,0,3.2,9.5H1v1H3.2a11.8,11.8,0,0,0,1.56,5.57l-2,2,0.71,0.71,1.88-1.88A6,6,0,0,0,10,19.52a6,6,0,0,0,4.67-2.58l1.83,1.83,0.71-.71-2-2a11.78,11.78,0,0,0,1.58-5.6H19Zm-9-9a5.06,5.06,0,0,1,4,2.38,5.68,5.68,0,0,1-4,1.53A5.68,5.68,0,0,1,6,3.86,5.06,5.06,0,0,1,10,1.48ZM4.19,10A11.14,11.14,0,0,1,5.44,4.74,6.61,6.61,0,0,0,9.52,6.36V18.48C6.54,18.11,4.19,14.45,4.19,10Zm6.34,8.48V6.36a6.61,6.61,0,0,0,4.08-1.62A11.14,11.14,0,0,1,15.86,10C15.86,14.45,13.51,18.11,10.52,18.48Z"/></svg>