<svg id="Layer_1" data-name="Layer 1" xmlns="http://www.w3.org/2000/svg" viewBox="0 0 25 20"><defs><style>.cls-1{fill:#fff;}</style></defs><title>Untitled-1</title><path class="cls-1" d="M17.29,1.75H7.71a0.65,0.65,0,1,1,0-1.3h9.58A0.65,0.65,0,1,1,17.29,1.75Z"/><path class="cls-1" d="M25,19.55H0V3.81H25V19.55ZM1.31,18.25H23.69V5.11H1.31V18.25Z"/><path class="cls-1" d="M12.5,16.36a4.68,4.68,0,1,1,4.68-4.68A4.68,4.68,0,0,1,12.5,16.36Zm0-8.06a3.38,3.38,0,1,0,3.38,3.38A3.38,3.38,0,0,0,12.5,8.3Z"/></svg>