<svg id="Layer_1" data-name="Layer 1" xmlns="http://www.w3.org/2000/svg" viewBox="0 0 29 20"><defs><style>.cls-1{fill:#fff;}</style></defs><title>Untitled-1</title><path class="cls-1" d="M20.68,17.81a0.74,0.74,0,0,1-.53-1.27L26.69,10,20.15,3.46A0.74,0.74,0,0,1,21.2,2.41L28.8,10,21.2,17.59A0.74,0.74,0,0,1,20.68,17.81Z"/><path class="cls-1" d="M8.32,17.81a0.74,0.74,0,0,1-.53-0.22L0.2,10,7.8,2.41A0.74,0.74,0,1,1,8.85,3.46L2.31,10l6.54,6.54A0.74,0.74,0,0,1,8.32,17.81Z"/><path class="cls-1" d="M11.87,20l-0.2,0a0.74,0.74,0,0,1-.51-0.92L16.41,0.54a0.74,0.74,0,1,1,1.43.41L12.59,19.46A0.74,0.74,0,0,1,11.87,20Z"/></svg>