<svg id="Layer_1" data-name="Layer 1" xmlns="http://www.w3.org/2000/svg" viewBox="0 0 20 20"><defs><style>.cls-1{fill:#f04952;}.cls-2{fill:none;}</style></defs><title>Untitled-1</title><path class="cls-1" d="M10,19.94A9.94,9.94,0,1,1,17,17h0A9.91,9.91,0,0,1,10,19.94ZM10,1.06a8.94,8.94,0,1,0,6.32,2.62A8.88,8.88,0,0,0,10,1.06Z"/><path class="cls-2" d="M6.73,3.15V17.08a7.69,7.69,0,0,0,2.84.72V2.43A7.69,7.69,0,0,0,6.73,3.15Z"/><path class="cls-2" d="M4.57,4.66A7.68,7.68,0,0,0,2.89,7.19V13a7.69,7.69,0,0,0,2.84,3.47V3.71A7.73,7.73,0,0,0,4.57,4.66Z"/><path class="cls-2" d="M10.57,2.43V17.8A7.69,7.69,0,0,0,13.41,17V3.2A7.69,7.69,0,0,0,10.57,2.43Z"/><path class="cls-2" d="M15.47,4.66a7.72,7.72,0,0,0-1.06-.88V16.45a7.56,7.56,0,0,0,2.84-3.67V7.45A7.66,7.66,0,0,0,15.47,4.66Z"/><path class="cls-1" d="M2.89,13V7.19A7.73,7.73,0,0,0,2.89,13Z"/><path class="cls-1" d="M5.73,3.71v12.8a7.62,7.62,0,0,0,1,.56V3.15A7.62,7.62,0,0,0,5.73,3.71Z"/><path class="cls-1" d="M9.57,2.43V17.8a7.74,7.74,0,0,0,1,0V2.43A7.74,7.74,0,0,0,9.57,2.43Z"/><path class="cls-1" d="M13.41,3.2V17a7.65,7.65,0,0,0,1-.59V3.78A7.65,7.65,0,0,0,13.41,3.2Z"/><path class="cls-1" d="M17.25,7.45v5.33A7.72,7.72,0,0,0,17.25,7.45Z"/></svg>