<svg id="Layer_1" data-name="Layer 1" xmlns="http://www.w3.org/2000/svg" viewBox="0 0 20 20"><defs><style>.cls-1{fill:#fff;}</style></defs><title>Untitled-1</title><path class="cls-1" d="M9.75,19.51a9.85,9.85,0,0,1-1.55-.12L8.42,18a8.37,8.37,0,0,0,1.32.1v1.44Z"/><path class="cls-1" d="M5.08,18.33a9.79,9.79,0,0,1-2.58-2l1.07-1a8.33,8.33,0,0,0,2.2,1.73Zm-4.34-4.8A9.69,9.69,0,0,1,0,10.33l1.44-.08A8.28,8.28,0,0,0,2.07,13Zm1-6.07L0.36,7.07a9.7,9.7,0,0,1,1.42-3L3,4.94A8.26,8.26,0,0,0,1.74,7.46Zm15.31-1.7a8.35,8.35,0,0,0-1.73-2.2l1-1.07a9.77,9.77,0,0,1,2,2.58ZM4.93,3L4.1,1.78a9.7,9.7,0,0,1,3-1.42l0.4,1.39A8.25,8.25,0,0,0,4.93,3Zm8-.89a8.28,8.28,0,0,0-2.73-.63L10.32,0a9.7,9.7,0,0,1,3.2.74Z"/><path class="cls-1" d="M19.51,9.75H18.07A8.35,8.35,0,0,0,18,8.42l1.42-.23A9.83,9.83,0,0,1,19.51,9.75Z"/><polygon class="cls-1" points="20 18.64 16.16 14.8 19.32 13.61 10.38 10.38 13.61 19.32 14.8 16.16 18.64 20 20 18.64"/></svg>