<svg id="Layer_1" data-name="Layer 1" xmlns="http://www.w3.org/2000/svg" viewBox="0 0 20 20"><defs><style>.cls-1{fill:#fff;}</style></defs><title>Untitled-1</title><path class="cls-1" d="M17.25,1.17H2.75A1.58,1.58,0,0,0,1.17,2.75v14.5a1.58,1.58,0,0,0,1.58,1.58h14.5a1.58,1.58,0,0,0,1.58-1.58V2.75A1.58,1.58,0,0,0,17.25,1.17ZM2.17,2.75a0.58,0.58,0,0,1,.58-0.58H5.46L2.17,5.46V2.75Zm0,4.12,4.7-4.7h4.45L2.17,11.33V6.87Zm0,10.32V12.74L12.74,2.17h4.45Zm15.66,0.06a0.58,0.58,0,0,1-.58.58H14.68l3.14-3.14v2.56Zm0-4-4.56,4.56H8.82l9-9v4.45Zm0-5.87L7.4,17.83H3L17.83,3V7.4Z"/></svg>