<?xml version="1.0" encoding="utf-8"?>
<!-- Generator: Adobe Illustrator 19.2.1, SVG Export Plug-In . SVG Version: 6.00 Build 0)  -->
<svg version="1.1" id="Layer_1" xmlns="http://www.w3.org/2000/svg" xmlns:xlink="http://www.w3.org/1999/xlink" x="0px" y="0px"
	 viewBox="0 0 13.7 13.7" style="enable-background:new 0 0 13.7 13.7;" xml:space="preserve">
<style type="text/css">
	.st0{fill:#FFFFFF;}
	.st1{fill:#F04952;}
	.st2{fill:none;}
</style>
<g>
	<path class="st1" d="M6.9,13.7C3.1,13.7,0,10.7,0,6.9S3.1,0,6.9,0c3.8,0,6.9,3.1,6.9,6.9S10.7,13.7,6.9,13.7z M6.9,0.7
		c-3.4,0-6.2,2.8-6.2,6.2s2.8,6.2,6.2,6.2c3.4,0,6.2-2.8,6.2-6.2S10.3,0.7,6.9,0.7z"/>
</g>
<path class="st1" d="M10,9c0,0.6-0.4,1-1,1H4.7c-0.6,0-1-0.4-1-1V4.7c0-0.5,0.4-1,1-1H9c0.6,0,1,0.5,1,1V9z"/>
</svg>
